<svg id="visual" viewBox="0 0 2560 1440" width="2560" height="1440" xmlns="http://www.w3.org/2000/svg" xmlns:xlink="http://www.w3.org/1999/xlink" version="1.1"><rect x="0" y="0" width="2560" height="1440" fill="#001220"></rect><defs><linearGradient id="grad1_0" x1="43.8%" y1="0%" x2="100%" y2="100%"><stop offset="14.444444444444446%" stop-color="#d2d1b3" stop-opacity="1"></stop><stop offset="85.55555555555554%" stop-color="#d2d1b3" stop-opacity="1"></stop></linearGradient></defs><defs><linearGradient id="grad1_1" x1="43.8%" y1="0%" x2="100%" y2="100%"><stop offset="14.444444444444446%" stop-color="#d2d1b3" stop-opacity="1"></stop><stop offset="85.55555555555554%" stop-color="#a7b59b" stop-opacity="1"></stop></linearGradient></defs><defs><linearGradient id="grad1_2" x1="43.8%" y1="0%" x2="100%" y2="100%"><stop offset="14.444444444444446%" stop-color="#7f9986" stop-opacity="1"></stop><stop offset="85.55555555555554%" stop-color="#a7b59b" stop-opacity="1"></stop></linearGradient></defs><defs><linearGradient id="grad1_3" x1="43.8%" y1="0%" x2="100%" y2="100%"><stop offset="14.444444444444446%" stop-color="#7f9986" stop-opacity="1"></stop><stop offset="85.55555555555554%" stop-color="#5c7d73" stop-opacity="1"></stop></linearGradient></defs><defs><linearGradient id="grad1_4" x1="43.8%" y1="0%" x2="100%" y2="100%"><stop offset="14.444444444444446%" stop-color="#3d6160" stop-opacity="1"></stop><stop offset="85.55555555555554%" stop-color="#5c7d73" stop-opacity="1"></stop></linearGradient></defs><defs><linearGradient id="grad1_5" x1="43.8%" y1="0%" x2="100%" y2="100%"><stop offset="14.444444444444446%" stop-color="#3d6160" stop-opacity="1"></stop><stop offset="85.55555555555554%" stop-color="#24454c" stop-opacity="1"></stop></linearGradient></defs><defs><linearGradient id="grad1_6" x1="43.8%" y1="0%" x2="100%" y2="100%"><stop offset="14.444444444444446%" stop-color="#102b37" stop-opacity="1"></stop><stop offset="85.55555555555554%" stop-color="#24454c" stop-opacity="1"></stop></linearGradient></defs><defs><linearGradient id="grad1_7" x1="43.8%" y1="0%" x2="100%" y2="100%"><stop offset="14.444444444444446%" stop-color="#102b37" stop-opacity="1"></stop><stop offset="85.55555555555554%" stop-color="#001220" stop-opacity="1"></stop></linearGradient></defs><defs><linearGradient id="grad2_0" x1="0%" y1="0%" x2="56.3%" y2="100%"><stop offset="14.444444444444446%" stop-color="#d2d1b3" stop-opacity="1"></stop><stop offset="85.55555555555554%" stop-color="#d2d1b3" stop-opacity="1"></stop></linearGradient></defs><defs><linearGradient id="grad2_1" x1="0%" y1="0%" x2="56.3%" y2="100%"><stop offset="14.444444444444446%" stop-color="#a7b59b" stop-opacity="1"></stop><stop offset="85.55555555555554%" stop-color="#d2d1b3" stop-opacity="1"></stop></linearGradient></defs><defs><linearGradient id="grad2_2" x1="0%" y1="0%" x2="56.3%" y2="100%"><stop offset="14.444444444444446%" stop-color="#a7b59b" stop-opacity="1"></stop><stop offset="85.55555555555554%" stop-color="#7f9986" stop-opacity="1"></stop></linearGradient></defs><defs><linearGradient id="grad2_3" x1="0%" y1="0%" x2="56.3%" y2="100%"><stop offset="14.444444444444446%" stop-color="#5c7d73" stop-opacity="1"></stop><stop offset="85.55555555555554%" stop-color="#7f9986" stop-opacity="1"></stop></linearGradient></defs><defs><linearGradient id="grad2_4" x1="0%" y1="0%" x2="56.3%" y2="100%"><stop offset="14.444444444444446%" stop-color="#5c7d73" stop-opacity="1"></stop><stop offset="85.55555555555554%" stop-color="#3d6160" stop-opacity="1"></stop></linearGradient></defs><defs><linearGradient id="grad2_5" x1="0%" y1="0%" x2="56.3%" y2="100%"><stop offset="14.444444444444446%" stop-color="#24454c" stop-opacity="1"></stop><stop offset="85.55555555555554%" stop-color="#3d6160" stop-opacity="1"></stop></linearGradient></defs><defs><linearGradient id="grad2_6" x1="0%" y1="0%" x2="56.3%" y2="100%"><stop offset="14.444444444444446%" stop-color="#24454c" stop-opacity="1"></stop><stop offset="85.55555555555554%" stop-color="#102b37" stop-opacity="1"></stop></linearGradient></defs><defs><linearGradient id="grad2_7" x1="0%" y1="0%" x2="56.3%" y2="100%"><stop offset="14.444444444444446%" stop-color="#001220" stop-opacity="1"></stop><stop offset="85.55555555555554%" stop-color="#102b37" stop-opacity="1"></stop></linearGradient></defs><g transform="translate(2560, 0)"><path d="M0 1152C-146 1129.4 -292 1106.7 -437.8 1056.9C-583.5 1007.1 -729.1 930.2 -814.6 814.6C-900.1 699 -925.7 544.8 -971.9 402.6C-1018.2 260.4 -1085.1 130.2 -1152 0L0 0Z" fill="#081f2b"></path><path d="M0 1008C-127.8 988.2 -255.5 968.4 -383.1 924.8C-510.6 881.2 -637.9 813.9 -712.8 712.8C-787.6 611.6 -810 476.7 -850.4 352.3C-890.9 227.8 -949.4 113.9 -1008 0L0 0Z" fill="#193842"></path><path d="M0 864C-109.5 847 -219 830 -328.3 792.7C-437.7 755.3 -546.8 697.6 -610.9 610.9C-675.1 524.3 -694.3 408.6 -728.9 301.9C-763.6 195.3 -813.8 97.6 -864 0L0 0Z" fill="#305356"></path><path d="M0 720C-91.3 705.8 -182.5 691.7 -273.6 660.6C-364.7 629.5 -455.7 581.4 -509.1 509.1C-562.6 436.9 -578.6 340.5 -607.5 251.6C-636.4 162.7 -678.2 81.4 -720 0L0 0Z" fill="#4c6f6a"></path><path d="M0 576C-73 564.7 -146 553.4 -218.9 528.5C-291.8 503.6 -364.5 465.1 -407.3 407.3C-450.1 349.5 -462.8 272.4 -486 201.3C-509.1 130.2 -542.5 65.1 -576 0L0 0Z" fill="#6d8b7d"></path><path d="M0 432C-54.8 423.5 -109.5 415 -164.2 396.3C-218.8 377.7 -273.4 348.8 -305.5 305.5C-337.5 262.1 -347.1 204.3 -364.5 151C-381.8 97.6 -406.9 48.8 -432 0L0 0Z" fill="#93a790"></path><path d="M0 288C-36.5 282.3 -73 276.7 -109.4 264.2C-145.9 251.8 -182.3 232.5 -203.6 203.6C-225 174.8 -231.4 136.2 -243 100.6C-254.5 65.1 -271.3 32.5 -288 0L0 0Z" fill="#bcc3a7"></path><path d="M0 144C-18.3 141.2 -36.5 138.3 -54.7 132.1C-72.9 125.9 -91.1 116.3 -101.8 101.8C-112.5 87.4 -115.7 68.1 -121.5 50.3C-127.3 32.5 -135.6 16.3 -144 0L0 0Z" fill="#d2d1b3"></path></g><g transform="translate(0, 1440)"><path d="M0 -1152C130.7 -1095.1 261.4 -1038.3 411.8 -994.1C562.2 -949.9 732.2 -918.5 814.6 -814.6C896.9 -710.7 891.5 -534.3 933.1 -386.5C974.7 -238.7 1063.4 -119.3 1152 0L0 0Z" fill="#081f2b"></path><path d="M0 -1008C114.4 -958.2 228.7 -908.5 360.3 -869.8C491.9 -831.2 640.7 -803.7 712.8 -712.8C784.8 -621.9 780.1 -467.6 816.5 -338.2C852.9 -208.8 930.4 -104.4 1008 0L0 0Z" fill="#193842"></path><path d="M0 -864C98 -821.3 196 -778.7 308.8 -745.6C421.6 -712.4 549.2 -688.9 610.9 -610.9C672.7 -533 668.6 -400.8 699.8 -289.9C731 -179 797.5 -89.5 864 0L0 0Z" fill="#305356"></path><path d="M0 -720C81.7 -684.5 163.4 -648.9 257.4 -621.3C351.3 -593.7 457.7 -574.1 509.1 -509.1C560.6 -444.2 557.2 -334 583.2 -241.6C609.2 -149.2 664.6 -74.6 720 0L0 0Z" fill="#4c6f6a"></path><path d="M0 -576C65.3 -547.6 130.7 -519.1 205.9 -497C281.1 -475 366.1 -459.2 407.3 -407.3C448.5 -355.3 445.8 -267.2 466.6 -193.3C487.4 -119.3 531.7 -59.7 576 0L0 0Z" fill="#6d8b7d"></path><path d="M0 -432C49 -410.7 98 -389.3 154.4 -372.8C210.8 -356.2 274.6 -344.4 305.5 -305.5C336.3 -266.5 334.3 -200.4 349.9 -144.9C365.5 -89.5 398.8 -44.8 432 0L0 0Z" fill="#93a790"></path><path d="M0 -288C32.7 -273.8 65.3 -259.6 102.9 -248.5C140.5 -237.5 183.1 -229.6 203.6 -203.6C224.2 -177.7 222.9 -133.6 233.3 -96.6C243.7 -59.7 265.8 -29.8 288 0L0 0Z" fill="#bcc3a7"></path><path d="M0 -144C16.3 -136.9 32.7 -129.8 51.5 -124.3C70.3 -118.7 91.5 -114.8 101.8 -101.8C112.1 -88.8 111.4 -66.8 116.6 -48.3C121.8 -29.8 132.9 -14.9 144 0L0 0Z" fill="#d2d1b3"></path></g></svg>